<svg xmlns="http://www.w3.org/2000/svg" width="47.969" height="47.94" viewBox="0 0 47.969 47.94">
  <defs>
    <style>
      .cls-1 {
        fill: #fc5f45;
        fill-rule: evenodd;
      }
    </style>
  </defs>
  <path id="_" data-name="" class="cls-1" d="M853.206,5736.47v47.92H805.255v-47.92h47.951Zm-45.963,1.99v9h43.975v-9H807.243Zm43.975,43.95v-32.96H807.243v32.96h43.975Zm-30.993-37.87h3.041v-3.04h-3.041v3.04Zm14.97,0h3.041v-3.04H835.2v3.04Zm-12.747,11.69H824.2v15.66H822.1v-11.11h-3.86v-1.63h0.351c1.012-.08,1.7-0.14,2.047-0.18a1.96,1.96,0,0,0,1.111-.64,2.794,2.794,0,0,0,.7-1.75v-0.35Zm15.613,6.54a5.49,5.49,0,0,1,1.462,3.97,5.225,5.225,0,0,1-1.638,3.92,5.391,5.391,0,0,1-3.859,1.58,5.278,5.278,0,0,1-3.8-1.4,4.816,4.816,0,0,1-1.462-3.63v-0.35h2.105v0.35a2.964,2.964,0,0,0,.936,2.28,3.265,3.265,0,0,0,2.339.88,2.89,2.89,0,0,0,2.4-1.11,4.12,4.12,0,0,0,.878-2.63,3.517,3.517,0,0,0-.936-2.51,3.2,3.2,0,0,0-2.456-1,3.4,3.4,0,0,0-3.041,1.64l-0.117.11h-1.754l1.637-8.41h8.07v1.99h-6.549l-0.7,3.62a4.357,4.357,0,0,1,2.573-.82A5.2,5.2,0,0,1,838.061,5762.77Z" transform="translate(-805.25 -5736.47)"/>
</svg>
