<svg xmlns="http://www.w3.org/2000/svg" width="51.969" height="46.75" viewBox="0 0 51.969 46.75">
  <defs>
    <style>
      .cls-1 {
        fill: #feb960;
        fill-rule: evenodd;
      }
    </style>
  </defs>
  <path id="_" data-name="" class="cls-1" d="M440.312,5772.94v3.86l9.367,5.26-0.937,1.75-9.483-5.26-9.484,5.26-0.937-1.75,9.367-5.26v-3.86H413.266v-35.88h51.985v35.88H440.312Zm-25.055-1.99h48v-31.91h-48v31.91Zm27.046-26.18,1.873,0.59-5.5,18.46-6.439-8.88-4.215,8.3-5.62-11.46-3.162,11.69-1.99-.47,4.566-16.71,6.206,12.51,3.98-7.72,5.972,8.3Zm15.22,5.96a5.876,5.876,0,0,1,1.757,4.33,5.713,5.713,0,0,1-1.757,4.2,5.893,5.893,0,0,1-4.332,1.76,6,6,0,0,1-5.971-5.96,5.879,5.879,0,0,1,1.756-4.33,5.746,5.746,0,0,1,4.215-1.75A5.885,5.885,0,0,1,457.523,5750.73Zm-1.463,7.13a3.815,3.815,0,0,0,0-5.61,4.032,4.032,0,0,0-2.869-1.17,3.995,3.995,0,0,0-3.98,3.98,3.724,3.724,0,0,0,1.229,2.8,3.9,3.9,0,0,0,2.751,1.17A4.032,4.032,0,0,0,456.06,5757.86Z" transform="translate(-413.281 -5737.06)"/>
</svg>
