<svg xmlns="http://www.w3.org/2000/svg" width="35.34" height="54.94" viewBox="0 0 35.34 54.94">
  <defs>
    <style>
      .cls-1 {
        fill: #38c695;
        fill-rule: evenodd;
      }
    </style>
  </defs>
  <path id="_" data-name="" class="cls-1" d="M1234.13,5760.84a17.255,17.255,0,0,1,2.7,9.41,17.685,17.685,0,0,1-35.37,0,17.255,17.255,0,0,1,2.7-9.41,16.755,16.755,0,0,1,7.14-6.37q-4.92-11.8-4.92-13.91v-7.59h25.53v7.59q0,1.635-4.92,13.91A16.813,16.813,0,0,1,1234.13,5760.84Zm-21.07-7.19a18.478,18.478,0,0,1,6.08-1.05,16.984,16.984,0,0,1,5.98,1.05q4.8-11.22,4.8-13.09v-5.61h-9.84v13.44h-1.99v-13.44h-9.72v5.61q0,1.53,4.69,13.09h0Zm21.77,16.6a15.008,15.008,0,0,0-4.62-11.1,15.7,15.7,0,0,0-22.13,0,15.621,15.621,0,0,0,0,22.2,15.7,15.7,0,0,0,22.13,0A14.977,14.977,0,0,0,1234.83,5770.25Zm-3.86,0a11.762,11.762,0,1,1-3.45-8.36A11.391,11.391,0,0,1,1230.97,5770.25Zm-1.99,0a9.5,9.5,0,0,0-2.87-6.89,9.835,9.835,0,0,0-16.8,6.89,9.5,9.5,0,0,0,2.87,6.9,9.767,9.767,0,0,0,13.93,0A9.54,9.54,0,0,0,1228.98,5770.25Z" transform="translate(-1201.47 -5732.97)"/>
</svg>
