<svg xmlns="http://www.w3.org/2000/svg" width="45.843" height="48.03" viewBox="0 0 45.843 48.03">
  <defs>
    <style>
      .cls-1 {
        fill: #38c695;
        fill-rule: evenodd;
      }
    </style>
  </defs>
  <path id="_" data-name="" class="cls-1" d="M850.043,5521.27a4.856,4.856,0,0,1-2.866,1.7v34.09h-1.988v-34.09a4.744,4.744,0,0,1-2.865-1.76,4.97,4.97,0,0,1-1.111-3.17,4.989,4.989,0,0,1,5.029-5.03,4.739,4.739,0,0,1,3.45,1.46A5.163,5.163,0,0,1,850.043,5521.27Zm-1.755-1.06a3.111,3.111,0,0,0,0-4.33,2.788,2.788,0,0,0-2.046-.88,3.045,3.045,0,1,0,0,6.09A2.788,2.788,0,0,0,848.288,5520.21Zm-34.15,32.63a5,5,0,0,1,1.111,3.17,5.006,5.006,0,0,1-5.029,5.04,4.7,4.7,0,0,1-3.45-1.47,5.15,5.15,0,0,1-.351-6.79,4.8,4.8,0,0,1,2.865-1.7v-34.1h1.988v34.1A4.735,4.735,0,0,1,814.138,5552.84Zm-1.754,5.34a3.123,3.123,0,0,0,0-4.34,2.924,2.924,0,0,0-2.164-.88,2.789,2.789,0,0,0-2.047.88,3.123,3.123,0,0,0,0,4.34,2.817,2.817,0,0,0,2.047.87A2.955,2.955,0,0,0,812.384,5558.18Zm19.765-24.32a5.064,5.064,0,0,1,0,6.33,4.749,4.749,0,0,1-2.866,1.76v15.11h-2.105v-15.11a4.744,4.744,0,0,1-2.865-1.76,5.064,5.064,0,0,1,0-6.33,4.73,4.73,0,0,1,2.865-1.75v-15.12h2.105v15.12A4.735,4.735,0,0,1,832.149,5533.86Zm-0.877,3.17a3.2,3.2,0,1,0-.936,2.11A2.916,2.916,0,0,0,831.272,5537.03Z" transform="translate(-805.313 -5513)"/>
</svg>
