<svg xmlns="http://www.w3.org/2000/svg" width="43.72" height="40" viewBox="0 0 43.72 40">
  <defs>
    <style>
      .cls-1 {
        fill: #feb960;
        fill-rule: evenodd;
      }
    </style>
  </defs>
  <path id="_" data-name="" class="cls-1" d="M1404.25,2285.29h-27.5v-40h27.5v40ZM1378,2246.54v3.75h25v-3.75h-25Zm0,5v25h25v-25h-25Zm25,32.5v-6.25h-25v6.25h25Zm-15-35h5v-1.25h-5v1.25Zm4.37,31.87a1.844,1.844,0,1,1-.54-1.33A1.818,1.818,0,0,1,1392.37,2280.91Zm-1.87-.62a0.625,0.625,0,1,0,.62.62A0.547,0.547,0,0,0,1390.5,2280.29Zm14.03-25h15.94v30h-15.94v-30Zm15,29.06v-4.69h-14.06v4.69h14.06Zm0-5.62v-18.76h-14.06v18.76h14.06Zm-14.06-22.51v2.82h14.06v-2.82h-14.06Zm5.16,1.88h3.74v-0.94h-3.74v0.94Zm3.28,23.91a1.41,1.41,0,0,1-2.82,0,1.374,1.374,0,0,1,.41-1,1.425,1.425,0,0,1,2,0A1.374,1.374,0,0,1,1413.91,2282.01Zm-1.41-.47a0.47,0.47,0,1,0,.47.47A0.414,0.414,0,0,0,1412.5,2281.54Z" transform="translate(-1376.75 -2245.28)"/>
</svg>
